<svg width="116" height="24" viewBox="0 0 116 24" fill="none" xmlns="http://www.w3.org/2000/svg">
<path d="M7.19078 20.04H9.74678C10.5148 20.04 11.0548 19.884 11.3668 19.572C11.7028 19.236 11.8708 18.684 11.8708 17.916V6.936C11.8708 6.168 11.7028 5.628 11.3668 5.316C11.0548 4.98 10.5148 4.812 9.74678 4.812H7.19078C6.42278 4.812 5.88278 4.98 5.57078 5.316C5.25878 5.628 5.10278 6.168 5.10278 6.936V17.916C5.10278 18.684 5.25878 19.236 5.57078 19.572C5.88278 19.884 6.42278 20.04 7.19078 20.04ZM10.5028 24H6.47078C4.57478 24 3.11078 23.496 2.07878 22.488C1.04678 21.48 0.530781 20.028 0.530781 18.132V6.72C0.530781 4.824 1.04678 3.372 2.07878 2.364C3.11078 1.356 4.57478 0.852 6.47078 0.852H10.5028C12.3988 0.852 13.8628 1.356 14.8948 2.364C15.9268 3.372 16.4428 4.824 16.4428 6.72V18.132C16.4428 20.028 15.9268 21.48 14.8948 22.488C13.8628 23.496 12.3988 24 10.5028 24ZM25.7221 20.184H29.7541C30.5461 20.184 31.1101 20.028 31.4461 19.716C31.8061 19.38 31.9861 18.84 31.9861 18.096V16.008C31.9861 15.264 31.8061 14.736 31.4461 14.424C31.0861 14.112 30.4981 13.956 29.6821 13.956H25.7221C25.4581 13.956 25.3261 14.088 25.3261 14.352V19.788C25.3261 20.052 25.4581 20.184 25.7221 20.184ZM25.7221 10.248H29.3941C30.1621 10.248 30.7261 10.092 31.0861 9.78C31.4461 9.444 31.6261 8.904 31.6261 8.16V6.756C31.6261 6.012 31.4461 5.484 31.0861 5.172C30.7501 4.836 30.1981 4.668 29.4301 4.668H25.7221C25.4581 4.668 25.3261 4.8 25.3261 5.064V9.852C25.3261 10.116 25.4581 10.248 25.7221 10.248ZM20.7541 23.244V1.608C20.7541 1.104 21.0061 0.852 21.5101 0.852H30.1501C32.0461 0.852 33.5101 1.356 34.5421 2.364C35.5741 3.372 36.0901 4.812 36.0901 6.684V8.16C36.0901 10.2 35.1421 11.52 33.2461 12.12C34.2061 12.264 34.9741 12.66 35.5501 13.308C36.1261 13.932 36.4141 14.832 36.4141 16.008V18.168C36.4141 20.04 35.8981 21.48 34.8661 22.488C33.8341 23.496 32.3821 24 30.5101 24H21.5101C21.0061 24 20.7541 23.748 20.7541 23.244ZM45.6908 20.184H49.7228C50.5148 20.184 51.0788 20.028 51.4148 19.716C51.7748 19.38 51.9548 18.84 51.9548 18.096V16.008C51.9548 15.264 51.7748 14.736 51.4148 14.424C51.0548 14.112 50.4668 13.956 49.6508 13.956H45.6908C45.4268 13.956 45.2948 14.088 45.2948 14.352V19.788C45.2948 20.052 45.4268 20.184 45.6908 20.184ZM45.6908 10.248H49.3628C50.1308 10.248 50.6948 10.092 51.0548 9.78C51.4148 9.444 51.5948 8.904 51.5948 8.16V6.756C51.5948 6.012 51.4148 5.484 51.0548 5.172C50.7188 4.836 50.1668 4.668 49.3988 4.668H45.6908C45.4268 4.668 45.2948 4.8 45.2948 5.064V9.852C45.2948 10.116 45.4268 10.248 45.6908 10.248ZM40.7228 23.244V1.608C40.7228 1.104 40.9748 0.852 41.4788 0.852H50.1188C52.0148 0.852 53.4788 1.356 54.5108 2.364C55.5428 3.372 56.0588 4.812 56.0588 6.684V8.16C56.0588 10.2 55.1108 11.52 53.2148 12.12C54.1748 12.264 54.9428 12.66 55.5188 13.308C56.0948 13.932 56.3828 14.832 56.3828 16.008V18.168C56.3828 20.04 55.8668 21.48 54.8348 22.488C53.8028 23.496 52.3508 24 50.4788 24H41.4788C40.9748 24 40.7228 23.748 40.7228 23.244ZM66.9916 20.04H69.5476C70.3156 20.04 70.8556 19.884 71.1676 19.572C71.5036 19.236 71.6716 18.684 71.6716 17.916V6.936C71.6716 6.168 71.5036 5.628 71.1676 5.316C70.8556 4.98 70.3156 4.812 69.5476 4.812H66.9916C66.2236 4.812 65.6836 4.98 65.3716 5.316C65.0596 5.628 64.9036 6.168 64.9036 6.936V17.916C64.9036 18.684 65.0596 19.236 65.3716 19.572C65.6836 19.884 66.2236 20.04 66.9916 20.04ZM70.3036 24H66.2716C64.3756 24 62.9116 23.496 61.8796 22.488C60.8476 21.48 60.3316 20.028 60.3316 18.132V6.72C60.3316 4.824 60.8476 3.372 61.8796 2.364C62.9116 1.356 64.3756 0.852 66.2716 0.852H70.3036C72.1996 0.852 73.6636 1.356 74.6956 2.364C75.7276 3.372 76.2436 4.824 76.2436 6.72V18.132C76.2436 20.028 75.7276 21.48 74.6956 22.488C73.6636 23.496 72.1996 24 70.3036 24ZM90.0588 24H86.1348C84.2388 24 82.7748 23.496 81.7428 22.488C80.7108 21.48 80.1948 20.028 80.1948 18.132V6.72C80.1948 4.824 80.7108 3.372 81.7428 2.364C82.7748 1.356 84.2388 0.852 86.1348 0.852H90.0588C91.9308 0.852 93.3828 1.368 94.4148 2.4C95.4708 3.408 95.9988 4.848 95.9988 6.72V8.412C95.9988 8.94 95.7348 9.204 95.2068 9.204H92.1828C91.6788 9.204 91.4268 8.94 91.4268 8.412V6.936C91.4268 6.168 91.2588 5.628 90.9228 5.316C90.6108 4.98 90.0708 4.812 89.3028 4.812H86.8548C86.1108 4.812 85.5708 4.98 85.2348 5.316C84.9228 5.628 84.7668 6.168 84.7668 6.936V17.916C84.7668 18.684 84.9228 19.236 85.2348 19.572C85.5708 19.884 86.1108 20.04 86.8548 20.04H89.3028C90.0708 20.04 90.6108 19.884 90.9228 19.572C91.2588 19.236 91.4268 18.684 91.4268 17.916V16.44C91.4268 15.912 91.6788 15.648 92.1828 15.648H95.2068C95.7348 15.648 95.9988 15.912 95.9988 16.44V18.132C95.9988 20.004 95.4708 21.456 94.4148 22.488C93.3828 23.496 91.9308 24 90.0588 24ZM106.226 20.04H108.782C109.55 20.04 110.09 19.884 110.402 19.572C110.738 19.236 110.906 18.684 110.906 17.916V6.936C110.906 6.168 110.738 5.628 110.402 5.316C110.09 4.98 109.55 4.812 108.782 4.812H106.226C105.458 4.812 104.918 4.98 104.606 5.316C104.294 5.628 104.138 6.168 104.138 6.936V17.916C104.138 18.684 104.294 19.236 104.606 19.572C104.918 19.884 105.458 20.04 106.226 20.04ZM109.538 24H105.506C103.61 24 102.146 23.496 101.114 22.488C100.082 21.48 99.5659 20.028 99.5659 18.132V6.72C99.5659 4.824 100.082 3.372 101.114 2.364C102.146 1.356 103.61 0.852 105.506 0.852H109.538C111.434 0.852 112.898 1.356 113.93 2.364C114.962 3.372 115.478 4.824 115.478 6.72V18.132C115.478 20.028 114.962 21.48 113.93 22.488C112.898 23.496 111.434 24 109.538 24Z" fill="#48AC98"/>
</svg>
