<svg width="154" height="27" viewBox="0 0 154 27" fill="none" xmlns="http://www.w3.org/2000/svg">
<path d="M26.8672 13.502C26.8672 14.6973 26.709 15.8516 26.3926 16.9648C26.0879 18.0664 25.6543 19.1035 25.0918 20.0762C24.5293 21.0371 23.8496 21.916 23.0527 22.7129C22.2559 23.5098 21.377 24.1953 20.416 24.7695C19.4551 25.332 18.418 25.7656 17.3047 26.0703C16.1914 26.3867 15.0371 26.5449 13.8418 26.5449C12.6465 26.5449 11.4922 26.3867 10.3789 26.0703C9.27734 25.7656 8.24023 25.332 7.26758 24.7695C6.30664 24.1953 5.42773 23.5098 4.63086 22.7129C3.83398 21.916 3.14844 21.0371 2.57422 20.0762C2.01172 19.1035 1.57227 18.0664 1.25586 16.9648C0.951172 15.8516 0.798828 14.6973 0.798828 13.502C0.798828 12.3066 0.951172 11.1523 1.25586 10.0391C1.57227 8.92578 2.01172 7.88867 2.57422 6.92773C3.14844 5.9668 3.83398 5.08789 4.63086 4.29102C5.42773 3.49414 6.30664 2.81445 7.26758 2.25195C8.24023 1.68945 9.27734 1.25586 10.3789 0.951172C11.4922 0.634766 12.6465 0.476562 13.8418 0.476562C15.0371 0.476562 16.1914 0.634766 17.3047 0.951172C18.418 1.25586 19.4551 1.68945 20.416 2.25195C21.377 2.81445 22.2559 3.49414 23.0527 4.29102C23.8496 5.08789 24.5293 5.9668 25.0918 6.92773C25.6543 7.88867 26.0879 8.92578 26.3926 10.0391C26.709 11.1523 26.8672 12.3066 26.8672 13.502ZM21.8574 13.502C21.8574 12.4004 21.6465 11.3633 21.2246 10.3906C20.8027 9.40625 20.2285 8.55664 19.502 7.8418C18.7871 7.11523 17.9375 6.54102 16.9531 6.11914C15.9805 5.69727 14.9434 5.48633 13.8418 5.48633C12.7285 5.48633 11.6855 5.69727 10.7129 6.11914C9.74023 6.54102 8.89062 7.11523 8.16406 7.8418C7.4375 8.55664 6.86328 9.40625 6.44141 10.3906C6.01953 11.3633 5.80859 12.4004 5.80859 13.502C5.80859 14.6035 6.01953 15.6406 6.44141 16.6133C6.86328 17.5742 7.4375 18.418 8.16406 19.1445C8.89062 19.8711 9.74023 20.4453 10.7129 20.8672C11.6855 21.2891 12.7285 21.5 13.8418 21.5C14.9434 21.5 15.9805 21.2891 16.9531 20.8672C17.9375 20.4453 18.7871 19.8711 19.502 19.1445C20.2285 18.418 20.8027 17.5742 21.2246 16.6133C21.6465 15.6406 21.8574 14.6035 21.8574 13.502ZM50.3516 18.4414C50.3516 19.4844 50.1523 20.4629 49.7539 21.377C49.3555 22.291 48.8105 23.0938 48.1191 23.7852C47.4395 24.4648 46.6426 25.0039 45.7285 25.4023C44.8145 25.8008 43.8359 26 42.793 26H30.1895V0.792969H42.793C43.8359 0.792969 44.8145 0.992187 45.7285 1.39062C46.6426 1.78906 47.4395 2.33398 48.1191 3.02539C48.8105 3.70508 49.3555 4.50195 49.7539 5.41602C50.1523 6.33008 50.3516 7.30859 50.3516 8.35156C50.3516 8.82031 50.2871 9.30078 50.1582 9.79297C50.0293 10.2852 49.8477 10.7598 49.6133 11.2168C49.3789 11.6738 49.0977 12.0898 48.7695 12.4648C48.4414 12.8398 48.0781 13.1504 47.6797 13.3965C48.0898 13.6191 48.459 13.9238 48.7871 14.3105C49.1152 14.6855 49.3965 15.1016 49.6309 15.5586C49.8652 16.0156 50.041 16.4961 50.1582 17C50.2871 17.4922 50.3516 17.9727 50.3516 18.4414ZM35.2344 20.9551H42.793C43.1445 20.9551 43.4727 20.8906 43.7773 20.7617C44.082 20.6328 44.3457 20.457 44.5684 20.2344C44.8027 20 44.9844 19.7305 45.1133 19.4258C45.2422 19.1211 45.3066 18.793 45.3066 18.4414C45.3066 18.0898 45.2422 17.7617 45.1133 17.457C44.9844 17.1523 44.8027 16.8887 44.5684 16.666C44.3457 16.4316 44.082 16.25 43.7773 16.1211C43.4727 15.9922 43.1445 15.9277 42.793 15.9277H35.2344V20.9551ZM35.2344 10.8828H42.793C43.1445 10.8828 43.4727 10.8184 43.7773 10.6895C44.082 10.5605 44.3457 10.3848 44.5684 10.1621C44.8027 9.92773 44.9844 9.6582 45.1133 9.35352C45.2422 9.03711 45.3066 8.70312 45.3066 8.35156C45.3066 8 45.2422 7.67187 45.1133 7.36719C44.9844 7.0625 44.8027 6.79883 44.5684 6.57617C44.3457 6.3418 44.082 6.16016 43.7773 6.03125C43.4727 5.90234 43.1445 5.83789 42.793 5.83789H35.2344V10.8828ZM74.3281 18.4414C74.3281 19.4844 74.1289 20.4629 73.7305 21.377C73.332 22.291 72.7871 23.0938 72.0957 23.7852C71.416 24.4648 70.6191 25.0039 69.7051 25.4023C68.791 25.8008 67.8125 26 66.7695 26H54.166V0.792969H66.7695C67.8125 0.792969 68.791 0.992187 69.7051 1.39062C70.6191 1.78906 71.416 2.33398 72.0957 3.02539C72.7871 3.70508 73.332 4.50195 73.7305 5.41602C74.1289 6.33008 74.3281 7.30859 74.3281 8.35156C74.3281 8.82031 74.2637 9.30078 74.1348 9.79297C74.0059 10.2852 73.8242 10.7598 73.5898 11.2168C73.3555 11.6738 73.0742 12.0898 72.7461 12.4648C72.418 12.8398 72.0547 13.1504 71.6562 13.3965C72.0664 13.6191 72.4355 13.9238 72.7637 14.3105C73.0918 14.6855 73.373 15.1016 73.6074 15.5586C73.8418 16.0156 74.0176 16.4961 74.1348 17C74.2637 17.4922 74.3281 17.9727 74.3281 18.4414ZM59.2109 20.9551H66.7695C67.1211 20.9551 67.4492 20.8906 67.7539 20.7617C68.0586 20.6328 68.3223 20.457 68.5449 20.2344C68.7793 20 68.9609 19.7305 69.0898 19.4258C69.2188 19.1211 69.2832 18.793 69.2832 18.4414C69.2832 18.0898 69.2188 17.7617 69.0898 17.457C68.9609 17.1523 68.7793 16.8887 68.5449 16.666C68.3223 16.4316 68.0586 16.25 67.7539 16.1211C67.4492 15.9922 67.1211 15.9277 66.7695 15.9277H59.2109V20.9551ZM59.2109 10.8828H66.7695C67.1211 10.8828 67.4492 10.8184 67.7539 10.6895C68.0586 10.5605 68.3223 10.3848 68.5449 10.1621C68.7793 9.92773 68.9609 9.6582 69.0898 9.35352C69.2188 9.03711 69.2832 8.70312 69.2832 8.35156C69.2832 8 69.2188 7.67187 69.0898 7.36719C68.9609 7.0625 68.7793 6.79883 68.5449 6.57617C68.3223 6.3418 68.0586 6.16016 67.7539 6.03125C67.4492 5.90234 67.1211 5.83789 66.7695 5.83789H59.2109V10.8828ZM102.84 13.502C102.84 14.6973 102.682 15.8516 102.365 16.9648C102.061 18.0664 101.627 19.1035 101.064 20.0762C100.502 21.0371 99.8223 21.916 99.0254 22.7129C98.2285 23.5098 97.3496 24.1953 96.3887 24.7695C95.4277 25.332 94.3906 25.7656 93.2773 26.0703C92.1641 26.3867 91.0098 26.5449 89.8145 26.5449C88.6191 26.5449 87.4648 26.3867 86.3516 26.0703C85.25 25.7656 84.2129 25.332 83.2402 24.7695C82.2793 24.1953 81.4004 23.5098 80.6035 22.7129C79.8066 21.916 79.1211 21.0371 78.5469 20.0762C77.9844 19.1035 77.5449 18.0664 77.2285 16.9648C76.9238 15.8516 76.7715 14.6973 76.7715 13.502C76.7715 12.3066 76.9238 11.1523 77.2285 10.0391C77.5449 8.92578 77.9844 7.88867 78.5469 6.92773C79.1211 5.9668 79.8066 5.08789 80.6035 4.29102C81.4004 3.49414 82.2793 2.81445 83.2402 2.25195C84.2129 1.68945 85.25 1.25586 86.3516 0.951172C87.4648 0.634766 88.6191 0.476562 89.8145 0.476562C91.0098 0.476562 92.1641 0.634766 93.2773 0.951172C94.3906 1.25586 95.4277 1.68945 96.3887 2.25195C97.3496 2.81445 98.2285 3.49414 99.0254 4.29102C99.8223 5.08789 100.502 5.9668 101.064 6.92773C101.627 7.88867 102.061 8.92578 102.365 10.0391C102.682 11.1523 102.84 12.3066 102.84 13.502ZM97.8301 13.502C97.8301 12.4004 97.6191 11.3633 97.1973 10.3906C96.7754 9.40625 96.2012 8.55664 95.4746 7.8418C94.7598 7.11523 93.9102 6.54102 92.9258 6.11914C91.9531 5.69727 90.916 5.48633 89.8145 5.48633C88.7012 5.48633 87.6582 5.69727 86.6855 6.11914C85.7129 6.54102 84.8633 7.11523 84.1367 7.8418C83.4102 8.55664 82.8359 9.40625 82.4141 10.3906C81.9922 11.3633 81.7812 12.4004 81.7812 13.502C81.7812 14.6035 81.9922 15.6406 82.4141 16.6133C82.8359 17.5742 83.4102 18.418 84.1367 19.1445C84.8633 19.8711 85.7129 20.4453 86.6855 20.8672C87.6582 21.2891 88.7012 21.5 89.8145 21.5C90.916 21.5 91.9531 21.2891 92.9258 20.8672C93.9102 20.4453 94.7598 19.8711 95.4746 19.1445C96.2012 18.418 96.7754 17.5742 97.1973 16.6133C97.6191 15.6406 97.8301 14.6035 97.8301 13.502ZM126.289 23.416C125.117 24.4238 123.805 25.1973 122.352 25.7363C120.898 26.2754 119.393 26.5449 117.834 26.5449C116.639 26.5449 115.484 26.3867 114.371 26.0703C113.27 25.7656 112.232 25.332 111.26 24.7695C110.299 24.1953 109.42 23.5098 108.623 22.7129C107.826 21.916 107.141 21.0371 106.566 20.0762C106.004 19.1035 105.564 18.0664 105.248 16.9648C104.943 15.8516 104.791 14.6973 104.791 13.502C104.791 12.3066 104.943 11.1523 105.248 10.0391C105.564 8.92578 106.004 7.88867 106.566 6.92773C107.141 5.95508 107.826 5.07031 108.623 4.27344C109.42 3.47656 110.299 2.79688 111.26 2.23438C112.232 1.66016 113.27 1.2207 114.371 0.916016C115.484 0.599609 116.639 0.441406 117.834 0.441406C119.393 0.441406 120.898 0.710937 122.352 1.25C123.805 1.77734 125.117 2.55078 126.289 3.57031L123.617 7.96484C122.879 7.16797 122.006 6.55859 120.998 6.13672C119.99 5.70312 118.936 5.48633 117.834 5.48633C116.721 5.48633 115.678 5.69727 114.705 6.11914C113.732 6.54102 112.883 7.11523 112.156 7.8418C111.43 8.55664 110.855 9.40625 110.434 10.3906C110.012 11.3633 109.801 12.4004 109.801 13.502C109.801 14.6035 110.012 15.6406 110.434 16.6133C110.855 17.5742 111.43 18.418 112.156 19.1445C112.883 19.8711 113.732 20.4453 114.705 20.8672C115.678 21.2891 116.721 21.5 117.834 21.5C118.936 21.5 119.99 21.2891 120.998 20.8672C122.006 20.4336 122.879 19.8184 123.617 19.0215L126.289 23.416ZM153.184 13.502C153.184 14.6973 153.025 15.8516 152.709 16.9648C152.404 18.0664 151.971 19.1035 151.408 20.0762C150.846 21.0371 150.166 21.916 149.369 22.7129C148.572 23.5098 147.693 24.1953 146.732 24.7695C145.771 25.332 144.734 25.7656 143.621 26.0703C142.508 26.3867 141.354 26.5449 140.158 26.5449C138.963 26.5449 137.809 26.3867 136.695 26.0703C135.594 25.7656 134.557 25.332 133.584 24.7695C132.623 24.1953 131.744 23.5098 130.947 22.7129C130.15 21.916 129.465 21.0371 128.891 20.0762C128.328 19.1035 127.889 18.0664 127.572 16.9648C127.268 15.8516 127.115 14.6973 127.115 13.502C127.115 12.3066 127.268 11.1523 127.572 10.0391C127.889 8.92578 128.328 7.88867 128.891 6.92773C129.465 5.9668 130.15 5.08789 130.947 4.29102C131.744 3.49414 132.623 2.81445 133.584 2.25195C134.557 1.68945 135.594 1.25586 136.695 0.951172C137.809 0.634766 138.963 0.476562 140.158 0.476562C141.354 0.476562 142.508 0.634766 143.621 0.951172C144.734 1.25586 145.771 1.68945 146.732 2.25195C147.693 2.81445 148.572 3.49414 149.369 4.29102C150.166 5.08789 150.846 5.9668 151.408 6.92773C151.971 7.88867 152.404 8.92578 152.709 10.0391C153.025 11.1523 153.184 12.3066 153.184 13.502ZM148.174 13.502C148.174 12.4004 147.963 11.3633 147.541 10.3906C147.119 9.40625 146.545 8.55664 145.818 7.8418C145.104 7.11523 144.254 6.54102 143.27 6.11914C142.297 5.69727 141.26 5.48633 140.158 5.48633C139.045 5.48633 138.002 5.69727 137.029 6.11914C136.057 6.54102 135.207 7.11523 134.48 7.8418C133.754 8.55664 133.18 9.40625 132.758 10.3906C132.336 11.3633 132.125 12.4004 132.125 13.502C132.125 14.6035 132.336 15.6406 132.758 16.6133C133.18 17.5742 133.754 18.418 134.48 19.1445C135.207 19.8711 136.057 20.4453 137.029 20.8672C138.002 21.2891 139.045 21.5 140.158 21.5C141.26 21.5 142.297 21.2891 143.27 20.8672C144.254 20.4453 145.104 19.8711 145.818 19.1445C146.545 18.418 147.119 17.5742 147.541 16.6133C147.963 15.6406 148.174 14.6035 148.174 13.502Z" fill="#48AC98"/>
</svg>
